<?xml version="1.0" standalone="no"?>
<!DOCTYPE svg PUBLIC "-//W3C//DTD SVG 20010904//EN"
 "http://www.w3.org/TR/2001/REC-SVG-20010904/DTD/svg10.dtd">
<svg version="1.0" xmlns="http://www.w3.org/2000/svg"
 width="512.000000pt" height="512.000000pt" viewBox="0 0 512.000000 512.000000"
 preserveAspectRatio="xMidYMid meet">

<g transform="translate(0.000000,512.000000) scale(0.100000,-0.100000)"
fill="#000000" stroke="none">
<path d="M3268 4946 c-143 -54 -231 -137 -282 -265 -9 -24 -16 -45 -14 -46 2
-2 28 19 58 46 100 92 230 136 363 126 64 -6 82 -12 131 -51 25 -20 12 -36
-68 -81 -67 -38 -126 -87 -126 -106 0 -11 52 -10 155 3 42 6 20 -35 -50 -96
-87 -76 -220 -219 -284 -309 -27 -37 -86 -142 -131 -233 -89 -183 -139 -258
-197 -298 -70 -48 -443 -310 -511 -359 -37 -26 -100 -69 -141 -95 -89 -57
-215 -155 -296 -232 -180 -169 -232 -210 -269 -210 -41 0 -148 -45 -188 -79
-26 -22 -52 -59 -70 -98 -36 -81 -37 -97 0 -89 64 16 123 18 152 6 50 -21 66
-62 80 -195 12 -112 11 -187 -6 -415 -4 -49 -1 -119 5 -165 12 -80 12 -80 -27
-200 -47 -144 -67 -212 -85 -285 l-13 -55 -54 -12 c-56 -12 -83 -23 -210 -80
-256 -117 -377 -155 -538 -168 -55 -4 -119 -19 -195 -45 -106 -36 -241 -91
-252 -102 -15 -15 2635 -23 3958 -11 l766 6 -117 65 c-185 103 -439 281 -494
347 -43 51 -81 154 -94 255 -9 73 -26 104 -66 121 -37 16 -168 19 -239 6 -45
-9 -47 -8 -73 25 -22 30 -28 55 -46 189 -45 349 -28 511 93 899 84 266 114
342 172 440 29 48 -3 187 -121 540 l-76 225 16 50 c41 128 122 215 200 215 83
0 132 -59 159 -190 7 -36 17 -65 22 -64 17 1 55 86 55 121 0 19 -7 50 -15 70
-31 74 -11 129 62 167 21 10 32 25 37 47 11 54 7 129 -9 159 -8 16 -58 58
-112 96 -54 37 -142 106 -196 153 -198 173 -260 210 -444 261 -152 43 -255 42
-375 -4z m-16 -2436 c39 -11 89 -32 110 -46 69 -48 142 -169 188 -309 12 -38
33 -96 46 -127 38 -90 90 -400 79 -461 -6 -32 -5 -35 24 -40 17 -4 31 -10 31
-15 0 -4 -48 -26 -106 -49 l-105 -41 -10 26 c-6 15 -21 49 -35 75 -24 47 -25
52 -14 123 6 41 25 115 41 164 16 50 29 106 29 124 0 84 -77 306 -134 387 -15
22 -16 17 -16 -104 0 -71 5 -160 11 -198 12 -79 8 -105 -46 -279 -47 -152 -51
-189 -24 -234 18 -31 21 -47 16 -95 -9 -79 -11 -83 -70 -117 -113 -67 -231
-91 -487 -101 l-175 -6 -41 54 c-120 158 -127 178 -104 300 6 30 13 66 15 82
13 71 36 171 55 238 12 41 24 84 27 97 3 13 19 35 35 50 16 15 75 74 131 132
56 58 152 155 215 217 62 61 109 114 105 116 -5 3 -42 9 -83 13 -106 10 -128
20 -65 29 28 3 55 8 60 10 6 2 58 4 118 4 78 1 127 -4 179 -19z m-782 -389 c0
-41 -40 -78 -171 -157 -96 -58 -110 -69 -105 -88 4 -11 11 -44 16 -72 5 -28
14 -71 20 -95 7 -24 12 -80 12 -126 l0 -82 85 -137 c47 -76 87 -143 89 -149 3
-8 -100 -12 -348 -13 -194 -2 -380 -4 -413 -5 l-60 -2 3 35 c5 55 41 166 58
181 20 16 57 90 94 185 42 109 69 150 162 244 99 101 153 131 405 225 39 14
89 39 110 55 21 16 39 29 41 29 1 1 2 -12 2 -28z"/>
</g>
</svg>
